<?xml version="1.0" standalone="no"?>
<!DOCTYPE svg PUBLIC "-//W3C//DTD SVG 20010904//EN"
 "http://www.w3.org/TR/2001/REC-SVG-20010904/DTD/svg10.dtd">
<svg version="1.0" xmlns="http://www.w3.org/2000/svg"
 width="90.000000pt" height="90.000000pt" viewBox="0 0 90.000000 90.000000"
 preserveAspectRatio="xMidYMid meet">

<g transform="translate(0.000000,90.000000) scale(0.100000,-0.100000)"
fill="#000000" stroke="none">
<path d="M355 796 c-107 -34 -186 -102 -232 -201 -24 -51 -28 -73 -28 -145 0
-72 4 -94 28 -146 57 -123 176 -203 313 -212 71 -4 74 -4 103 26 29 28 31 36
31 101 0 99 13 111 120 111 68 0 83 3 101 21 19 19 21 30 17 103 -7 129 -66
235 -169 301 -78 50 -199 68 -284 41z m135 -66 c11 -11 20 -29 20 -40 0 -26
-34 -60 -60 -60 -26 0 -60 34 -60 60 0 11 9 29 20 40 11 11 29 20 40 20 11 0
29 -9 40 -20z m-170 -70 c11 -11 20 -29 20 -40 0 -26 -34 -60 -60 -60 -26 0
-60 34 -60 60 0 11 9 29 20 40 11 11 29 20 40 20 11 0 29 -9 40 -20z m340 0
c11 -11 20 -29 20 -40 0 -26 -34 -60 -60 -60 -11 0 -29 9 -40 20 -11 11 -20
29 -20 40 0 11 9 29 20 40 11 11 29 20 40 20 11 0 29 -9 40 -20z m-410 -170
c11 -11 20 -29 20 -40 0 -26 -34 -60 -60 -60 -26 0 -60 34 -60 60 0 11 9 29
20 40 11 11 29 20 40 20 11 0 29 -9 40 -20z m480 0 c11 -11 20 -29 20 -40 0
-26 -34 -60 -60 -60 -11 0 -29 9 -40 20 -11 11 -20 29 -20 40 0 11 9 29 20 40
11 11 29 20 40 20 11 0 29 -9 40 -20z m-245 -215 c14 -13 25 -36 25 -50 0 -14
-11 -37 -25 -50 -31 -32 -69 -32 -100 0 -14 13 -25 36 -25 50 0 33 42 75 75
75 14 0 37 -11 50 -25z"/>
</g>
</svg>
